<?xml version="1.0" standalone="no"?>
<!DOCTYPE svg PUBLIC "-//W3C//DTD SVG 20010904//EN"
 "http://www.w3.org/TR/2001/REC-SVG-20010904/DTD/svg10.dtd">
<svg version="1.0" xmlns="http://www.w3.org/2000/svg"
 width="700.000000pt" height="700.000000pt" viewBox="0 0 700.000000 700.000000"
 preserveAspectRatio="xMidYMid meet">
<metadata>
Created by potrace 1.14, written by Peter Selinger 2001-2017
</metadata>
<g transform="translate(0.000000,700.000000) scale(0.100000,-0.100000)"
fill="#000000" stroke="none">
<path d="M6025 6825 c-333 -43 -622 -155 -940 -363 -202 -133 -294 -220 -1674
-1599 l-1333 -1332 806 -807 c676 -677 808 -805 820 -794 47 38 2613 2611
2684 2690 280 313 461 644 556 1015 9 33 18 78 21 100 3 22 8 46 10 52 19 56
26 402 12 536 -9 82 -30 188 -58 288 -11 41 -23 84 -26 96 -4 17 -20 27 -67
42 -104 34 -231 63 -341 78 -81 11 -380 9 -470 -2z m43 -835 l82 -2 1 -36 c7
-253 6 -301 -13 -387 -22 -102 -21 -100 -37 -140 -73 -188 -155 -308 -345
-503 l-120 -123 -333 333 c-183 183 -333 336 -333 340 0 12 226 228 295 281
214 164 461 252 680 240 22 -1 77 -3 123 -3z"/>
<path d="M3246 5843 c-1 -1 -464 -4 -1030 -6 l-1028 -4 -431 -432 -432 -431
643 -642 642 -643 1075 1075 c591 591 1072 1076 1069 1079 -4 4 -503 8 -508 4z"/>
<path d="M4926 2523 l-1077 -1077 643 -643 643 -643 431 432 431 431 2 506 c5
982 8 2071 6 2071 -1 0 -486 -485 -1079 -1077z"/>
<path d="M803 2237 l-803 -802 157 -157 157 -157 798 798 c439 439 798 803
798 807 0 5 -69 78 -152 161 l-153 152 -802 -802z"/>
<path d="M1618 1765 c-344 -343 -631 -631 -638 -640 -12 -14 6 -35 141 -171
l154 -154 642 642 643 643 -152 152 c-84 84 -156 153 -159 153 -4 0 -288 -281
-631 -625z"/>
<path d="M2405 1270 l-479 -479 156 -156 156 -157 482 482 483 482 -154 154
c-85 85 -156 154 -159 154 -3 0 -221 -216 -485 -480z"/>
</g>
</svg>
